<svg xmlns="http://www.w3.org/2000/svg" viewBox="0 0 1703.81 1079.29"><defs><style>.cls-1{fill:#f4f1e9;}.cls-2{fill:#ccf1de;}.cls-3{fill:#cbf2dd;}.cls-4{fill:#40687c;}.cls-16,.cls-18,.cls-20,.cls-5,.cls-7,.cls-9{fill:none;stroke-miterlimit:10;}.cls-5{stroke:#fff;}.cls-6{fill:#508f8f;}.cls-7{stroke:#fcfcfc;}.cls-8{fill:#5aada7;}.cls-9{stroke:#498a8a;}.cls-10{fill:#3d647b;}.cls-11{fill:#4f8f8f;}.cls-12{fill:#406079;}.cls-13{fill:#487d87;}.cls-14{fill:#3d5e7e;}.cls-15{fill:#a27b62;}.cls-16{stroke:#8a6846;}.cls-17{fill:#467e85;}.cls-18{stroke:#f7f7f7;}.cls-19{fill:#52a89e;}.cls-20{stroke:#428582;stroke-width:3px;}.cls-21{fill:#61a294;}.cls-22{fill:#416d7c;}.cls-23{fill:#405f7b;}</style></defs><title>3</title><g id="Camada_1" data-name="Camada 1"><rect class="cls-1" x="0.81" y="0.86" width="1703" height="1077.93"/><path class="cls-2" d="M789.91,185.41c-13.24-1.1-51.36-2.54-90.12,21.17a147.13,147.13,0,0,0-47.28,46.59,153,153,0,0,0-17.43,37.47Q609,253.7,583,216.76L501.73,101.65q-10.12-14.37-20.27-28.73l5.7-8.08,23.08-32.69L533.17-.33H680.49A228,228,0,0,1,789.91,185.41Z" transform="translate(0.81 0.69)"/><path class="cls-3" d="M191.16,341.45s32.66,18.14,71.37-6.05V290.64l-71.37,31.45Z" transform="translate(0.81 0.69)"/><path class="cls-4" d="M118,297.3c1.54,3.15,18.43,36.13,56.85,42.33,41,6.62,68.44-23.46,70.15-25.4,2,2.93,15.33,21.42,39.92,24.19a56.75,56.75,0,0,0,37-9L258.3,229.56l-81.65-11.49Z" transform="translate(0.81 0.69)"/><path class="cls-5" d="M157.79,259.15a66.35,66.35,0,0,0,34,6.7c20.38-1.49,60.82-32.41,65.32-36.29" transform="translate(0.81 0.69)"/><path class="cls-5" d="M133.71,282.78a78.61,78.61,0,0,0,56.85,23c38.35-.57,78.51-51,81-54.43" transform="translate(0.81 0.69)"/><path class="cls-3" d="M814.1,700.69l-.69.25L667.08,752.67h0L634.7,764.12l-19.05,6.74-20.48,7.24-36.77,3.66-13.22,1.32-2.62.26-9.22.91-73.06,7.28h0l-15.44,1.53h0l-7,.7-6.3.63-9.86,1-4.56.45-8.12.81-4.07.41-2.07.2h0l-18.08,1.8-3.88.38-17.34,1.73L352,802.3l-3-1.74L334.28,792,301.75,773l-19.22-11.2-14.24-8.29-2.92-1.7-6.95-4.05-25.26-14.7-18.61-10.84h0l-14.27-8.32-19.52-11.36-13-7.55L117.1,665.49,85.36,647l-20-11.64-27.82-62.7-3.54-8-.27-.6-8.52-19.18a0,0,0,0,0,0,0L0,488V286l85.16,7.75,31.69,2.88h0l1.51.14,1.23.11,4.43.4a47.7,47.7,0,0,0,.29,10.24h0c1.93,15.76,11.86,45.16,58.11,54.65h0c1.36.28,2.76.54,4.19.78,4,.69,8.27,1.24,12.8,1.62,31.77,2.67,76.83-2.62,140.71-22.42l.41-.13s29.47-5.51,62.48,7.3a116.33,116.33,0,0,1,48.29,35.19c1.23,1.48,2.43,3,3.61,4.58q2.43,3.24,4.76,6.76l12.59.19h0l66,1s87.09,89.51,176.6,27.82c0,0,79.84,82.25,98,60.48C812.89,485.39,897.56,603.92,814.1,700.69Z" transform="translate(0.81 0.69)"/><path class="cls-6" d="M504.45,937.77a680.62,680.62,0,0,1,186.88-39.31c117.48-7.78,212.47,16.77,270.34,36.89-3.37-162.87-145.25-274-270.34-253.41C590.92,698.44,504.92,799.18,502,924.46Q503.23,931.12,504.45,937.77Z" transform="translate(0.81 0.69)"/><path class="cls-7" d="M618.75,760.57s38.71-24.2,50.8-4.84C669.55,755.73,650.2,771.45,618.75,760.57Z" transform="translate(0.81 0.69)"/><path class="cls-7" d="M772.37,765.4s9.68-25.4,32.66-23C805,742.42,802.61,765.4,772.37,765.4Z" transform="translate(0.81 0.69)"/><path class="cls-8" d="M294.58,654.12S268,538,336.92,427.93c3.43,1.8,24.22,119.89-6.05,227.4Z" transform="translate(0.81 0.69)"/><path class="cls-8" d="M451,430.74c3,2.4,1.84,122.3-47.63,222.44l-35.45-7.84S363,526.31,451,430.74Z" transform="translate(0.81 0.69)"/><path class="cls-8" d="M517.83,491.48c2.66,3.6-35.13,137.11-120.8,233.88l-37.2-19.53s30.74-134.39,158-214.35Z" transform="translate(0.81 0.69)"/><path class="cls-9" d="M336.92,427.93s-26.61,131.84-25.4,225" transform="translate(0.81 0.69)"/><path class="cls-9" d="M449.41,436.4s-49.59,121-69,210.46" transform="translate(0.81 0.69)"/><path class="cls-9" d="M511.1,504.13s-88.3,122.17-127,203.21" transform="translate(0.81 0.69)"/><path class="cls-7" d="M817.12,788.39s1.21-18.15,37.5-7.26C854.62,781.13,835.27,800.48,817.12,788.39Z" transform="translate(0.81 0.69)"/><path class="cls-10" d="M538.92,914.18c44-47.31,82.09-87.09,112.49-118.54,10.24-10.58,26.51-27.22,52-43.54a264.76,264.76,0,0,1,44.76-23A382.44,382.44,0,0,1,640.52,891.2Z" transform="translate(0.81 0.69)"/><path class="cls-10" d="M644.15,863.38a275.42,275.42,0,0,1,153.62-67.74,306,306,0,0,1-101.6,101.61l-83.47,9.67,19.36-37.49Z" transform="translate(0.81 0.69)"/><line class="cls-7" x1="586.52" y1="903.52" x2="738.1" y2="741.9"/><line class="cls-7" x1="606.25" y1="907.61" x2="786.48" y2="804.8"/><path class="cls-11" d="M432.48,819.83,430,826l-22.37,54.53s0,0,0,0l-14.3,34.88L363.53,988l-.66.42a227.59,227.59,0,0,1-25.94,14.38h0a235.24,235.24,0,0,1-69.56,20.69,2.5,2.5,0,0,1-.38.06,221.91,221.91,0,0,1-52.23.72q-6.66-.69-13-1.75c-.3,0-.61-.09-.91-.15a225.43,225.43,0,0,1-46.3-13l-.14-.06c-7.21-2.88-13.85-6-19.91-9.1l0,0c-6-3.07-11.37-6.18-16.18-9.17l-.17-.1-1.32-.83c-4.21-2.65-7.91-5.18-11.14-7.49l0,0c-2.13-1.53-4-3-5.74-4.25q-5.09-5.14-10.35-10.77l0,0A523.32,523.32,0,0,1,44.2,911.76c-4.17-5.91-8.11-11.8-11.85-17.6a.36.36,0,0,1-.07-.1A521.76,521.76,0,0,1,0,836.16V464a210.56,210.56,0,0,1,31.3-2.12c3.56,0,7.1.14,10.59.34q6.87.4,13.53,1.27c51.47,6.63,93.94,33.2,113.37,72.12.61,1.22,1.19,2.43,1.73,3.65a108.85,108.85,0,0,1,5.69,15.62,118.13,118.13,0,0,1,3.39,16.44c2.65,19.83.11,37.54-2.35,49,1.75,4.1,14.26,32.1,46.12,43.59h0c1.14.41,2.3.79,3.48,1.16a77.17,77.17,0,0,0,32.2,2.87,83.93,83.93,0,0,0,18.4-4.37,77.65,77.65,0,0,0,14.71-7c.88-.82,1.77-1.62,2.66-2.41q2.7-2.4,5.43-4.62,4.65-3.79,9.37-7.09l1.89-1.3a140.44,140.44,0,0,1,26.15-14A111.84,111.84,0,0,1,369,619.19a83.89,83.89,0,0,1,18.05.19,66.79,66.79,0,0,1,8.33,1.56,49,49,0,0,1,18.51,8.88,36.74,36.74,0,0,1,8,8.82c9.81,15,8.34,35.57,6.6,46.76h0c0,.14,0,.28-.07.42h0c-.28,1.81-.57,3.35-.82,4.57q1.94,52,3.89,104l.72,19.38C432.33,815.79,432.4,817.81,432.48,819.83Z" transform="translate(0.81 0.69)"/><path class="cls-5" d="M173,665.61s-16.93,23,3.63,43.55C176.65,709.16,194.79,688.6,173,665.61Z" transform="translate(0.81 0.69)"/><path class="cls-5" d="M196,729.48s27.42-.36,29.83-31.93c0,0-28.4,2.89-29.83,31.93" transform="translate(0.81 0.69)"/><path class="cls-5" d="M64.05,669.58s-9.35-25.79-40-17.7c0,0,12.05,25.88,40,17.7" transform="translate(0.81 0.69)"/><path class="cls-5" d="M117.08,579.08s27.31,2.44,32.94-28.71c0,0-28.55,0-32.94,28.71" transform="translate(0.81 0.69)"/><path class="cls-5" d="M30.51,567s22.27-16,6.16-43.26c0,0-21.63,18.63-6.16,43.26" transform="translate(0.81 0.69)"/><path class="cls-5" d="M30.17,567.81s19.75,19,43.67-1.71c0,0-22.22-17.93-43.67,1.71" transform="translate(0.81 0.69)"/><path class="cls-12" d="M364.74,648.07s-16.93,37.5-16.93,123.38l3.62,84.67h0A67.28,67.28,0,0,0,408,776C398.12,727.52,382.93,668.28,364.74,648.07Z" transform="translate(0.81 0.69)"/><path class="cls-12" d="M419.17,817.42c0-2.42-15.72-106.45,24.19-159.67,0,0,33.87,96.77,14.52,140.31l-31.45,31.45H415.54Z" transform="translate(0.81 0.69)"/><path class="cls-5" d="M368.37,665s2.42,96.77,20.56,147.57" transform="translate(0.81 0.69)"/><line class="cls-5" x1="442.96" y1="679" x2="438.12" y2="808.43"/><path class="cls-13" d="M362.93,988.57,331.48,888.18c12.9-49.81,41.1-80.22,64.71-78,4.79.44,13,2.57,22.38,12.7,3.29-2,6.73-4.18,10.28-6.65s6.72-4.88,9.67-7.26l30.24-76.2a471.92,471.92,0,0,1,8.47-61.69c2.85-13.86,6.15-26.78,9.68-38.71,2.67-11.61,9.95-20.82,19.35-23,8.11-1.86,15.42,2.07,20.56,4.84a46,46,0,0,1,13.46,11,3.93,3.93,0,0,0,6.45-.68A480.31,480.31,0,0,0,568,580.34c9.87-23.62,12.89-36.3,26.61-46,3.55-2.5,16.06-11.31,29-7.25,10,3.14,15.08,12.33,16.93,15.72,6.05,11,5.72,22.14,1.21,52-1.76,11.7-4.08,25.77-7.16,41.73-1.42,7.38,3.76,14.65,11.25,15.15l1,0c4.5,0,9.72,1,13,4.78,3,3.48,3.29,8,3.63,13.31,0,.08,0,.15,0,.23a39,39,0,0,1-6.88,24.27,398.48,398.48,0,0,0-54.82,117c17.1-6.73,35.79-1.22,44.75,12.09,10,14.94,3,32.48,2.42,33.87a109.4,109.4,0,0,1-31.45,49.59l-113.7,30.24Z" transform="translate(0.81 0.69)"/><path class="cls-5" d="M617.54,551.31S548.6,802.9,471.18,948.05" transform="translate(0.81 0.69)"/><path class="cls-5" d="M506.26,616.63s18.41,57,28.56,185.13" transform="translate(0.81 0.69)"/><path class="cls-5" d="M655,667.43A546.28,546.28,0,0,1,534.82,801.76" transform="translate(0.81 0.69)"/><path class="cls-5" d="M373.54,818.24s55.31,89.89,62.57,140.7" transform="translate(0.81 0.69)"/><path class="cls-5" d="M644.15,825.88s-64.1,67.74-118.54,104" transform="translate(0.81 0.69)"/><path class="cls-13" d="M36.46,974A178.34,178.34,0,0,0,53.19,991.9c6,5.63,12.19,10.94,18.66,16A261.53,261.53,0,0,0,113.28,1034a258.41,258.41,0,0,0,45.6,17.91q11.79,3.38,23.85,5.62c2,.36,4,.77,6,1.07l6.06.93c4,.51,8.1,1,12.17,1.39,32.56,3.06,65.54.14,97.34-7.28a381.37,381.37,0,0,0,46.91-14.15,475.77,475.77,0,0,0,45-19.44c1.87-.9,3.63-1.83,5.58-2.69l5.68-2.38,11.38-4.66q11.4-4.62,22.86-9.08,22.92-8.92,46.06-17.27c15.44-5.54,30.93-10.91,46.53-16s31.27-9.91,47-14.43q11.83-3.36,23.74-6.46t23.9-5.9c8-1.86,16-3.61,24.06-5.2s16.13-3.07,24.25-4.28a358.09,358.09,0,0,1,49-4.45,179,179,0,0,1,24.6,1.34,96.82,96.82,0,0,1,23.84,6l-.11.27a97,97,0,0,0-23.83-5.43,178.49,178.49,0,0,0-24.47-.79,359.33,359.33,0,0,0-48.74,5.14c-32.25,5.46-64,13.49-95.45,22.67-15.73,4.54-31.36,9.41-46.92,14.5s-31.06,10.35-46.49,15.83-30.8,11.14-46.09,17q-11.48,4.38-22.88,8.93l-11.39,4.59-5.68,2.33c-1.8.79-3.67,1.76-5.5,2.62-29.49,14.34-60.45,26-92.51,33.32s-65.19,10.1-97.92,6.87c-4.09-.37-8.16-.93-12.24-1.47l-6.08-1c-2-.32-4-.74-6.06-1.11-8.06-1.56-16.06-3.49-23.94-5.8a258.46,258.46,0,0,1-45.67-18.26,261.24,261.24,0,0,1-41.39-26.52c-6.45-5.06-12.68-10.42-18.6-16.09a178.17,178.17,0,0,1-16.66-18.08Z" transform="translate(0.81 0.69)"/><path class="cls-14" d="M89.56,760,83,812.5v0l-1,8.36-5,40.08-48.47,1.1h0l-4.74.11L0,828.9V691.24c11.59.12,33.68,2.45,53.77,16.4h0c12.21,8.49,23.68,21.28,31.61,40.48A120.2,120.2,0,0,1,89.56,760Z" transform="translate(0.81 0.69)"/><path class="cls-14" d="M125.24,841.61s60.48-50.81,104-42.34l9.67,31.45-6,65.32-82.26,2.42Z" transform="translate(0.81 0.69)"/><path class="cls-15" d="M506.93,324.31l-1.23,9.27-.59,4.42a3.4,3.4,0,0,0,0,.78c.23,3.73,1.16,35.57-32.79,57.29h0q-2.14,1.38-4.47,2.69l-.52.24c-3.54,1.38-41.78,16-68.44,15.85a4.1,4.1,0,0,0-4.09,4.82c2.41,13.18,8.06,50.44,3.53,90.42-2.84,25.15-9.71,51.37-23.94,73.36h0a108.57,108.57,0,0,1-34.88,34.2,118.28,118.28,0,0,1-27.62,12.16l-.1,0c-.17.08-.34.14-.52.21l-2.93,1.46a4.11,4.11,0,0,0-1.68,5.8c.82,1.35,1.84,3,3,5.08.58,1,1.21,2.09,1.86,3.25v.06c1.52,2.66,3.22,5.67,5.06,9.12a458.07,458.07,0,0,1,32.57,77v0a336.1,336.1,0,0,1,14.4,69.25c.72,7.71,1.12,15.5,1.13,23.33,0,4.79-.12,9.59-.42,14.41h0q-.44,7.29-1.37,14.59a187.86,187.86,0,0,1-11.42,45l-9.2,24-18.68,48.83,0,.06-8.72,22.78a4.09,4.09,0,0,1-3.26,2.6L310,997l-64.9,9.17-33.22,4.69a4.11,4.11,0,0,1-1.4,0l-2.42-.5-3.2-.66-30.25-6.23a4.1,4.1,0,0,1-3.06-5.34l34.44-101.25,3.38-9.93.53-1.57c.05-.11.09-.22.13-.33,1.06-2.4,14.34-33.11,20.55-81.62h0a391.6,391.6,0,0,0,2.63-70.29,394.79,394.79,0,0,0-9.79-69.23h0a413.46,413.46,0,0,0-30.83-86.76,4.08,4.08,0,0,0-2.4-2.1c-2-.64-5.59-1.85-10.54-3.69-7.75-2.87-18.72-7.3-31.52-13.52q-4.82-2.35-10-5c-33.55-17.62-76.07-46.59-106.83-90.88A223.76,223.76,0,0,1,0,396.57V347.85l.61,4.72c.05.24.1.48.16.72,1.57,4.93,19.91,60.9,54.65,110.17,27.88,39.52,66.3,74.73,115.1,75.77h.22a4.11,4.11,0,0,0,4-5.11l-2.08-8.32a4.07,4.07,0,0,0-1.08-1.9c-9.09-9.09-93.22-96.46-87.5-210.89l.35-6.46.69-12.79,1.13-20.92A4.1,4.1,0,0,1,91.06,269l27.64,4.61a4.09,4.09,0,0,1,3.37,4.74c-.61,3.55-1.49,9.26-2.26,16.47,0,.13,0,.27,0,.41-.06.54-.11,1.09-.17,1.65-.09,1-.18,1.92-.27,2.92-1.84,20.66-2.29,50.76,5.67,78.27a121.11,121.11,0,0,0,7.68,20,4,4,0,0,0,3.44,2.23c8.15.37,34.8-1.36,46.31-38.12h0a114.7,114.7,0,0,0,4.36-21.62,201.35,201.35,0,0,0,.52-34.84,358.71,358.71,0,0,0-4.93-39.89q-2-11.51-4.9-24.33-1.53-6.81-3.31-14a4.11,4.11,0,0,1,3.6-5.07l16.92-1.61a4.1,4.1,0,0,1,4.42,3.35c.59,3.27,1.5,8.57,2.47,15.39.91,6.44,1.88,14.25,2.69,23,1.13,12.09,2,26,1.93,40.44,0,4.15-.09,8.35-.25,12.57-.2,5.29-.54,10.61-1,15.92q-.31,3.47-.73,6.91c-.29,2.49-.63,5-1,7.42-1,6.39-2.21,12.68-3.77,18.78-7.29,28.67-21.55,53.11-47.62,63.29a4.1,4.1,0,0,0-1.67,6.41L276.83,589a4.11,4.11,0,0,0,2.12,1.36,77.45,77.45,0,0,0,10.63,2,81.82,81.82,0,0,0,24.29-.77c1.54-.28,3.1-.63,4.68-1h0a64.1,64.1,0,0,0,26.33-13.81c12.09-10.52,22.65-27.49,28.32-54.43,1.65-8.17,3.6-19.09,5.14-32.06a427.67,427.67,0,0,0,2.11-69.55A450.82,450.82,0,0,0,373.21,359c-.42-2.07-.83-4.15-1.25-6.23a.88.88,0,0,1,0-.16,4.12,4.12,0,0,1,3.69-4.92,4.07,4.07,0,0,1,4.24,3.16l.49,2.16,9.1,40.45a4.11,4.11,0,0,0,3.89,3.21,134,134,0,0,0,58-12.11A116.25,116.25,0,0,0,481.88,364l.33-.28c1.2-.85,9.49-7.56,9.54-28.75,0-.12,0-.23,0-.35l-.12-1.73-.71-9.95a4.1,4.1,0,0,1,4.68-4.36l7.86,1.12A4.11,4.11,0,0,1,506.93,324.31Z" transform="translate(0.81 0.69)"/><path class="cls-16" d="M90.16,299.71s12.1,55.65,35.08,78.63" transform="translate(0.81 0.69)"/><path class="cls-16" d="M84.12,332.37s33.13,133.12,125.79,175.39" transform="translate(0.81 0.69)"/><path class="cls-16" d="M177.25,229.56S202.66,248.91,205.08,336" transform="translate(0.81 0.69)"/><path class="cls-16" d="M186.93,340.84s4.84,30.24-15.72,75" transform="translate(0.81 0.69)"/><path class="cls-16" d="M174.63,379.75s-4.63,20.36-37.29,43.34" transform="translate(0.81 0.69)"/><path class="cls-16" d="M154.27,504.13s90.85,57.59,135.12,125.27a141.26,141.26,0,0,1,21.21,56.07c6.29,41.19,23.53,136,51.72,158.56" transform="translate(0.81 0.69)"/><path class="cls-16" d="M340.55,709.76s-4.84,50.81,20.56,76.21" transform="translate(0.81 0.69)"/><path class="cls-16" d="M201.45,596.06s90.71,42.34,94.34,125.8c0,0-.31,97.93,59.12,164.48" transform="translate(0.81 0.69)"/><path class="cls-16" d="M210.83,619.69s54.72,6.61,70.45,132.41c0,0,6.05,70.15,49.59,146.36" transform="translate(0.81 0.69)"/><path class="cls-16" d="M218,641.91S270.39,694,255.88,776.29c0,0-15.73,65.32-10.89,104" transform="translate(0.81 0.69)"/><path class="cls-16" d="M225.17,844.05s-.69,59.77,5.8,84.56c.23.88.47,1.72.72,2.51" transform="translate(0.81 0.69)"/><path class="cls-16" d="M203.87,909.34s13.3,52,10.88,71.37" transform="translate(0.81 0.69)"/><path class="cls-16" d="M253.46,897.25c18.14-25.4,10.88-176.6,10.88-176.6s14.52,153.62,52,196" transform="translate(0.81 0.69)"/><path class="cls-16" d="M246.2,933.54S265.55,971,261.93,988" transform="translate(0.81 0.69)"/><path class="cls-16" d="M263.13,911.76s19.36,70.16,14.52,85.88" transform="translate(0.81 0.69)"/><path class="cls-16" d="M274,892.41s14.52,48.38,14.52,95.56" transform="translate(0.81 0.69)"/><path class="cls-16" d="M282.49,875.48S309.1,969.82,297,988" transform="translate(0.81 0.69)"/><path class="cls-16" d="M422.8,394.06s-10.89,14.52-29,20.57" transform="translate(0.81 0.69)"/><path class="cls-16" d="M478.44,367.45s-34.27,36-61.89,45.81" transform="translate(0.81 0.69)"/><path class="cls-16" d="M397.4,437.61s-6,66.52-2.42,78.62" transform="translate(0.81 0.69)"/><path class="cls-16" d="M379.28,486.37s14.49,71-37.52,129" transform="translate(0.81 0.69)"/><path class="cls-16" d="M303.05,616.63s38.73-5.63,56.85-58.06" transform="translate(0.81 0.69)"/><path class="cls-16" d="M292.16,605.74s7.84-7.89,26.91-15.43" transform="translate(0.81 0.69)"/><path class="cls-16" d="M0,390.87c7.73,10.54,28.88,38.95,43,54" transform="translate(0.81 0.69)"/><path class="cls-16" d="M13.71,431.18S68.84,495,82.53,497.12" transform="translate(0.81 0.69)"/><path class="cls-16" d="M76.08,509.31s38.16,24.15,60.05,23.85" transform="translate(0.81 0.69)"/><path class="cls-16" d="M119.19,540.42s41.13,19.35,65.32,13.31" transform="translate(0.81 0.69)"/><path class="cls-17" d="M178.82,897.63q-1.11,3.2-2.77,6.88l-16.54,45.22a0,0,0,0,1,0,0l-19.27,52.7a45.75,45.75,0,0,1-5.76-2.28l0,0A117,117,0,0,1,118.25,991l-.17-.1-1.32-.89a198,198,0,0,1-19-14.85l0,0q-4-3.51-8.23-7.6l0,0c-16.79-16.23-36.5-39.67-57.1-73.32a.36.36,0,0,1-.07-.1A612.32,612.32,0,0,1,0,833.55V811.11c3.87-7.49,12.84-12.2,33.4.41l.06,0A5.1,5.1,0,0,0,41,807.45c.8-9.47,1.55-35.74-8.91-74.7,0,0-6-34.72,21.67-25.11h0a49.42,49.42,0,0,1,4.64,1.89,6.77,6.77,0,0,0,9.13-3.64c2.36-5.95,5.16-17.4,6.59-39.34A21.08,21.08,0,0,1,77.82,656a57.07,57.07,0,0,1,7.54-9c8.58-8.08,20.66-12.19,30.32,12.6a23.42,23.42,0,0,1,1.41,5.83v0L122.82,717a5.72,5.72,0,0,0,1.62,4.84,6.27,6.27,0,0,0,8.12.44c7.67-5.69,30.18-18.78,24.13,28.59l-13.3,72.57s-.17,1.89-.37,5c-.69,11-1.68,37.33,4,45.85C147,874.27,192.78,857.92,178.82,897.63Z" transform="translate(0.81 0.69)"/><path class="cls-18" d="M95,656.54s-20.2,104-8.89,307.21" transform="translate(0.81 0.69)"/><path class="cls-18" d="M40.57,714.6s11.34,62,42,107.23" transform="translate(0.81 0.69)"/><line class="cls-18" x1="146.61" y1="727.39" x2="84.77" y2="832.55"/><path class="cls-18" d="M6.7,815S57.51,933.54,84.12,949.26" transform="translate(0.81 0.69)"/><path class="cls-18" d="M172.42,881.52s-27.82,38.71-62.9,72.58" transform="translate(0.81 0.69)"/><path class="cls-19" d="M83.53,959.19l1.18-18.84.07-.31a24,24,0,0,1,43.46-2.33l0,.13a42.35,42.35,0,0,1,2.09,6.88c1,5.82,2,16.41,2.11,35.65a4.36,4.36,0,0,0,4.31,4.4,10,10,0,0,0,8.16-5.35q12-23.85,23.83-49.51,6.22-13.59,12-26.89a26.36,26.36,0,0,1,8.37-10.64c8.42-6.27,15.87-8.67,19.53-6,4.54,3.29,2.39,13.68,1.21,19.36-2.17,10.5-5.7,13.95-14.51,31.44-8.41,16.7-10.25,23.59-8.72,30.88.51,2.42,1.29,9,5.61,9.43a19.14,19.14,0,0,0,18-8.89,13.65,13.65,0,0,0,1.64-3.7c5.18-17.54,20.46-46.81,30.66-80.94,2.07-6.91,4.52-13.1,9.43-25.49.93-2.32,1.66-3.31,2.3-4.92,4.28-10.78,16.27-15.5,24.56-11.92s13.24,15.85,7.94,26.54c-.91,1.83-1.25,3.28-1.9,4.56-10.3,20.24-8.82,19-13.3,27-11.94,21.22-37.17,56.14-37.14,76.38,0,2.71.09,6.13,2.38,7a17.55,17.55,0,0,0,19.39-4.87c11.94-13.66,32.43-38.65,38.34-55.47l0-.1,2.74-11.67a20.19,20.19,0,0,1,10.09-13.15,11.52,11.52,0,0,1,17.95,11.78A23.29,23.29,0,0,1,317,923l-10.23,8-.12.12c-1.2,1.44-23.49,28.39-33.11,47.68a10.39,10.39,0,0,0,7.88,14.88,20.55,20.55,0,0,0,17-5.41c9.28-8.77,24.85-27.3,40.91-63.22l0-.08c.36-1.12,8.71-27.45,20.55-67.68v0c.1-.52,8.33-44.83,23.56-61l.63-.65c15.1-15.09,25.73-13.47,26.56-13.31l.1,0c.75.27,10.84,3.89,10.84,10.87,0,7.26,4.84,20.57-33.87,82.26-2.16,3.4-46.71,73.6-52.28,91-.94,2.92-3.12,9.74.27,14.23a10.63,10.63,0,0,0,6,3.63h6.06a21.77,21.77,0,0,0,6.17-3.4,21.42,21.42,0,0,0,4-4.09h0l23.42-51.09c3.13-7.36,10-11.46,16-10.36a12.22,12.22,0,0,1,8.47,6.05c1.72,3.44,1.29,8.09,1,11.37a1,1,0,0,1,0,.35c-1.41,4.55-8.3,26.61-12,35.56a.9.9,0,0,0,1.23,1.14c5.45-2.69,18.9-8.48,19.49-.59a.83.83,0,0,1-.47.8c-13.34,6.88-28.1,13.78-44.26,20.32a534.15,534.15,0,0,1-56.8,19.34l-.1,0a213.81,213.81,0,0,1-160.83,2.4c-27.28-10.59-44.51-26.85-50.8-32.66a195.8,195.8,0,0,1-15.09-15.82C85.61,961.81,84.36,960.25,83.53,959.19Z" transform="translate(0.81 0.69)"/><path class="cls-20" d="M98.63,974.66s13.31-81,18.15,15.73" transform="translate(0.81 0.69)"/><path class="cls-20" d="M154.27,1009.74s16.94-70.16,42.34-112.49c0,0,8.47,31.45-42.34,112.49" transform="translate(0.81 0.69)"/><path class="cls-20" d="M201.45,1023c90.71-175.38,71.36-169.34,71.36-169.34-30.24,30.24-72.57,170.55-72.57,170.55" transform="translate(0.81 0.69)"/><path class="cls-20" d="M232.9,1023l65.31-90.71s19.36-9.68,18.15-31.45c0,0-19.36,14.51-23,37.49" transform="translate(0.81 0.69)"/><path class="cls-20" d="M301.8,1012.38l63.66-120.15s12.59-91.75,39.2-95.38c0,0,18.14,9.68-38.71,94.35l-42,86.32a15.42,15.42,0,0,0-1.56,6.74v22.46" transform="translate(0.81 0.69)"/><path class="cls-20" d="M362.32,991.6l24.41-30a33.64,33.64,0,0,0,7.88-16.06,56.52,56.52,0,0,0,.83-11.89,3.17,3.17,0,0,0-5.41-2.14c-4.89,5-11.55,14.78-10.78,31v23.58" transform="translate(0.81 0.69)"/><path class="cls-21" d="M611.41,59.74a40.59,40.59,0,0,1,2.27-17.84c5.5-14.87,18.22-21.55,21.57-23.18a29.32,29.32,0,0,1-.16,12.86c-.48,2-1.57,5.53-5.14,10.75A61.89,61.89,0,0,1,611.41,59.74Z" transform="translate(0.81 0.69)"/><path class="cls-21" d="M584.28,422.49a40.51,40.51,0,0,1,13.3-12.1c13.84-7.74,27.85-4.56,31.45-3.63a29.23,29.23,0,0,1-8.46,9.68,31.89,31.89,0,0,1-10.89,4.84A62,62,0,0,1,584.28,422.49Z" transform="translate(0.81 0.69)"/><path class="cls-21" d="M789.42,248.88a40.63,40.63,0,0,1,14.93-10c14.82-5.64,28.21-.44,31.64,1a29.34,29.34,0,0,1-9.79,8.33c-1.82.95-5.2,2.46-11.48,3.19A61.91,61.91,0,0,1,789.42,248.88Z" transform="translate(0.81 0.69)"/><path class="cls-21" d="M682.07,571a40.48,40.48,0,0,1,18-.53c15.55,3.12,24.12,14.65,26.25,17.7A29.17,29.17,0,0,1,713.56,590c-2-.16-5.71-.69-11.41-3.4A62,62,0,0,1,682.07,571Z" transform="translate(0.81 0.69)"/><path class="cls-21" d="M247.09,387.21A40.61,40.61,0,0,1,264.44,392c14,7.51,18.79,21.05,19.93,24.59a29.35,29.35,0,0,1-12.7-2,31.73,31.73,0,0,1-9.93-6.6A61.94,61.94,0,0,1,247.09,387.21Z" transform="translate(0.81 0.69)"/><path class="cls-21" d="M865,951.3a40.51,40.51,0,0,1,17.45,4.35c14.12,7.2,19.26,20.62,20.48,24.14a29.3,29.3,0,0,1-12.74-1.67,31.64,31.64,0,0,1-10.07-6.37A61.86,61.86,0,0,1,865,951.3Z" transform="translate(0.81 0.69)"/><path class="cls-22" d="M542.55,25.14a83.35,83.35,0,0,1-7.26,23l-2.13.74-46,16L420.38,88,367.77,69.63l-9.27-3.25-10.69-3.74,27.62-63H542.72A83.62,83.62,0,0,1,542.55,25.14Z" transform="translate(0.81 0.69)"/><path class="cls-5" d="M432.5-.33a39.39,39.39,0,0,1,12.07,31.52" transform="translate(0.81 0.69)"/><path class="cls-5" d="M500.21,28.77c.1-.34.19-.69.29-1.07a38.65,38.65,0,0,0-3.38-28" transform="translate(0.81 0.69)"/><path class="cls-17" d="M223,239.8a57.79,57.79,0,0,0,32.86,26.05A59.51,59.51,0,0,0,257,281.69c.21,1,.45,2.1.73,3.18A55.24,55.24,0,0,0,269.18,307c19.2,22.45,48.27,19.64,50.81,19.36,4.44,4.73,24.78,25.35,56.85,26.61,45.93,1.79,72.45-37.86,73.78-39.92,6.95,6.13,24.91,20.18,49.59,20.56,7.36.12,18.47.29,29-7.25,10.73-7.66,14.51-18.7,15.73-23,2.55,3,17.79,20.08,42.33,20.57,21.23.42,35.33-11.88,41.13-16.94,6-5.25,29.19-25.46,24.19-53.22C648,227.9,622.61,216.21,620,215c2,0,38.93-1.51,55.64-31.45,12.31-22.05,5.44-44.82,3.63-50.8-1-3.14-7.45-23.66-26.61-37.49-24.11-17.41-59-17.52-89.51-1.21-22.74-57.16-74.85-81.28-107.65-67.74-27.6,11.39-36.15,47.19-37.5,53.22-1.33-2.17-11-17.31-29-19.35a37.54,37.54,0,0,0-19.69,3.25c-15.32,3.65-73.35,19.41-112.76,76C228,180.37,223.76,221.75,223,239.8Z" transform="translate(0.81 0.69)"/><path class="cls-7" d="M346.6,101.34l6,9.68c2.32-1.66,27.56-19,55.64-8.47,16,6,24.69,18.07,27.83,23C447.81,107,467.4,96,486.91,97.71c22.41,2,36,20.23,39.91,25.41a69.18,69.18,0,0,1,12.1,26.61c9.19-16.4,26.22-25.51,42.33-23,18.43,2.89,27.29,19.68,29,23a47.1,47.1,0,0,1-47.17,68.94c.58,24.56-11.36,47.45-31.45,59.27-25.36,14.94-59.77,9.91-82.25-13.3a78.8,78.8,0,0,1-65.32,46c-40.79,3.11-65.8-27.77-67.73-30.24a90.36,90.36,0,0,1-58.06,4.84" transform="translate(0.81 0.69)"/><path class="cls-5" d="M258.14,229c15.09,18.73,38.74,27.46,60.64,22.29,23.92-5.64,35.48-25.44,37.49-29,27.58,21.1,60.69,22.95,79.84,7.26,11-9,21-26.78,15.72-43.55-7.2-22.75-40.33-36.25-55.64-24.19-9.69,7.64-11.71,25.07-6.05,42.34" transform="translate(0.81 0.69)"/><path class="cls-23" d="M397.4,19.09A44.29,44.29,0,0,1,370.79,57.8c-.22,1.28-.57,3.16-1.15,5.49-.46,1.86-1.07,4-1.87,6.34a73.44,73.44,0,0,1-21.17,31.71,73.72,73.72,0,0,1-36.29,16.94c6.42,44.89-12.92,88-48.38,108.86-1.22.72-2.45,1.4-3.67,2l-.55.3h0l-1.3.66h0A95.82,95.82,0,0,1,223,239.6a110,110,0,0,1-21.44,0,112.1,112.1,0,0,1-18.73-3.41h0c-.8-.21-1.45-.41-2-.56-.47.9-1.59,3-3.39,5.91a151.47,151.47,0,0,1-14.66,19.86,147,147,0,0,1-26.45,24,129.87,129.87,0,0,1-16.61,9.9l-.41.2c-.83.41-1.66.81-2.5,1.2h0a121.4,121.4,0,0,1-25.37,8.57c-2.29.52-4.62,1-7,1.34-.91.15-1.84.28-2.77.41-36.81,5-66.39-7.64-81.7-16.22V-.33H391.74a21.12,21.12,0,0,1,2,2.49A23.27,23.27,0,0,1,397.4,19.09Z" transform="translate(0.81 0.69)"/></g><g id="Camada_2" data-name="Camada 2"><path class="cls-5" d="M-.5,53.5c20.42,15.79,48.21,11.86,61-5,9.8-12.91,10-32.36,0-48" transform="translate(0.81 0.69)"/><path class="cls-5" d="M-.5,176.5c42.08,8.08,75.59-15.19,79-40,3.13-22.73-19.66-42.07-22-44a68.92,68.92,0,0,0,36-7c4.51-2.27,17.63-8.88,25-22,10-17.86,6.41-42.43-8-63" transform="translate(0.81 0.69)"/><path class="cls-5" d="M-.5,247.5a137.59,137.59,0,0,0,61,16c14.55.29,59.55,1.2,73.83-25.67,8.62-16.22,2.9-36.62.17-46.33a90,90,0,0,0-15-30,91.52,91.52,0,0,0,35-2c12.12-3.13,35.41-9.13,43.73-29.24,5.5-13.32,1.91-26.72-.73-33.76,31.44,10.32,62.53,3.61,76.82-14.6,12-15.27,12.18-33.4,12.18-33.4a52.53,52.53,0,0,0-3-18,56,56,0,0,0-10-13C269.57,13.71,252.11-3.1,234,2.44,220.22,6.67,210.09,22.66,210.5,41.5a80.13,80.13,0,0,0-25-41" transform="translate(0.81 0.69)"/></g></svg>