<svg id="Camada_1" data-name="Camada 1" xmlns="http://www.w3.org/2000/svg" viewBox="0 0 200.67 209"><defs><style>.cls-1{fill:#82b04d;}.cls-2{fill:#1ea6df;}</style></defs><title>1</title><path class="cls-1" d="M225.66,49.69a87.74,87.74,0,0,0-71.91,138,45.76,45.76,0,0,1,19.64-9.35A65.62,65.62,0,0,1,210.67,76a18.15,18.15,0,0,1,.49,4.2,18.34,18.34,0,0,1-1.36,6.94A54.19,54.19,0,0,0,186,175.92h0c10-.59,27.5,1.51,52.16,15.75a54.21,54.21,0,0,0,5.07-103.95A18.29,18.29,0,0,1,242.17,76a65.65,65.65,0,0,1,17.92,120.06l1.43.12a270.2,270.2,0,0,1,34.7-6.59A87.75,87.75,0,0,0,225.66,49.69ZM260,150.41a20.24,20.24,0,0,1-8.89,15.89,14.9,14.9,0,0,1-8.34,2.42h-4.9a2.29,2.29,0,0,0-2.29,2.29v6.1a2.29,2.29,0,0,1-2.29,2.29H221.08a2.29,2.29,0,0,1-2.29-2.29V171a2.29,2.29,0,0,0-2.29-2.29H195.14a2.29,2.29,0,0,1,0-4.58h25.94a2.29,2.29,0,0,1,2.29,2.29v6.11a2.29,2.29,0,0,0,2.29,2.29h3.05a2.29,2.29,0,0,0,2.29-2.29v-6.11a2.3,2.3,0,0,1,2.29-2.29h9.79a8.26,8.26,0,0,0,3.59-.77,15.08,15.08,0,0,0,2.79-25.72,12.33,12.33,0,0,0-7.54-2.5H219.61a7.74,7.74,0,0,1-5.42-2.11,10,10,0,0,1-3-8.57,9.82,9.82,0,0,1,3.93-6.31,6.45,6.45,0,0,1,3.91-1.32h25a2.29,2.29,0,1,1,0,4.57H219.33a2.13,2.13,0,0,0-1,.24,5,5,0,0,0,0,8.69,2.12,2.12,0,0,0,1,.23H244a11.31,11.31,0,0,1,5.37,1.34A20.33,20.33,0,0,1,260,150.41Zm-3.82-44.26a2.29,2.29,0,1,1,0,4.58H233.29a2.29,2.29,0,0,1-2.29-2.29v-6.1a2.28,2.28,0,0,0-2.29-2.29h-3.05a2.28,2.28,0,0,0-2.29,2.29v6.1a2.28,2.28,0,0,1-2.29,2.29h-9.79a8.4,8.4,0,0,0-3.59.77,15.08,15.08,0,0,0-2.79,25.72,12.28,12.28,0,0,0,7.54,2.51h22.31a7.78,7.78,0,0,1,5.42,2.1,10,10,0,0,1,3,8.58,9.85,9.85,0,0,1-3.93,6.31,6.45,6.45,0,0,1-3.91,1.32h-28a2.29,2.29,0,1,1,0-4.58H235a2.12,2.12,0,0,0,1-.23,5,5,0,0,0,0-8.69,2.13,2.13,0,0,0-1-.24H210.42a11.24,11.24,0,0,1-5.36-1.34,20,20,0,0,1-1.79-34.38,14.78,14.78,0,0,1,8.33-2.43h4.9a2.28,2.28,0,0,0,2.29-2.29v-6.1a2.3,2.3,0,0,1,2.29-2.29h12.21a2.3,2.3,0,0,1,2.29,2.29v6.1a2.28,2.28,0,0,0,2.29,2.29Z" transform="translate(-112.74 -30)"/><path class="cls-2" d="M289,57.32c.3-.42-9.39-9.67-24.42-16.79a103.93,103.93,0,0,0-22.89-7.63c-8.22-1.74-30.86-6.28-56.46,1.53-3.57,1.09-40.08,12.81-59.52,47.31-25.37,45-13.12,113.81,33.58,143.45,54.59,34.65,122.82-5.43,131.24-16.79.58-.78,2.31-3.12,1.52-4.58-2.58-4.81-30.41,3.5-44.25,7.63-7.67,2.29-12.68,3.86-19.84,3.05-9.9-1.12-18.69-6.35-18.31-7.63.26-.9,5.22-.29,7.63,0a57.76,57.76,0,0,1,7.63,1.53c5.44,1.37,11.14,1.41,13.73,0,1.08-.59,4.79-2.61,4.58-4.58s-4.33-2.36-16.79-6.1a121.05,121.05,0,0,1-12.36-4.2c-5.38-2.3-6.87-3.76-13.58-5-4.6-.82-19.1-3.42-33.57,3.05-8.42,3.77-10.4,8.74-15.26,7.63-2.11-.48-4.12-1.9-8.4-8.39-3.74-5.67-7.22-11-9.92-19.08a117.06,117.06,0,0,1-4.57-53.41c9-45.5,47.76-67.27,50.35-68.67,0,0,28.25-15.25,64.1-10.68a108.09,108.09,0,0,1,19.84,4.58C279.14,49.25,288.7,57.73,289,57.32Z" transform="translate(-112.74 -30)"/></svg>