<svg xmlns="http://www.w3.org/2000/svg" viewBox="0 0 407.68 136.95"><defs><style>.cls-1{fill:#1ea6df;}.cls-2{fill:#82b04d;}.cls-3{fill:#fff;}</style></defs><title>2</title><g id="Camada_2" data-name="Camada 2"><path class="cls-1" d="M223.33,114.5l10.6-13.63c1.65-2.45-41.94-28.57-68.41,5.51a38.16,38.16,0,0,0-5.59,10c-3.27,9.17-7.08,28,8.1,44.28A38.89,38.89,0,0,0,188,172c11.81,2.64,31.86,4.16,49.38-9.05l.28-38H200.48v17.21h17.9v9.63s-11.54,7.37-24.28,3.5a21.66,21.66,0,0,1-13.79-12.9,26.67,26.67,0,0,1,3.38-26.61,16.47,16.47,0,0,1,8.27-5.93A34.79,34.79,0,0,1,223.33,114.5Z" transform="translate(-7.01 -64.6)"/><path class="cls-1" d="M305.27,120.19a20,20,0,0,0-13-7.86s-18.74-5.51-37.2,1.24l2.62,14.61s19.58-4,28-.46a6.09,6.09,0,0,1,2.68,2.21,9.13,9.13,0,0,1,1.41,7.89S265.6,130,253,140.93a12.42,12.42,0,0,0-3.7,5.72c-2,6.5-5.85,20.77,13.25,26.85a34,34,0,0,0,27.71-5.79l3,5.79H309.5V133.32A22,22,0,0,0,305.27,120.19ZM289.5,152.07a3.78,3.78,0,0,1-1,2.59c-7.08,7.45-14.44,5-17.92,3.16a5.24,5.24,0,0,1-2.19-7.08,1.72,1.72,0,0,1,.14-.24c4.59-8.27,18.46-2.19,20.69-1.15a.54.54,0,0,1,.31.49Z" transform="translate(-7.01 -64.6)"/><path class="cls-1" d="M322.2,110.87h19.88V173h-20S322.34,110.73,322.2,110.87Z" transform="translate(-7.01 -64.6)"/><circle class="cls-1" cx="325.41" cy="29.8" r="11.61"/><path class="cls-1" d="M410.46,119.63a20,20,0,0,0-13-7.86s-18.74-5.51-37.2,1.24l2.62,14.6s19.58-4,28-.45a6.09,6.09,0,0,1,2.68,2.21,9.13,9.13,0,0,1,1.41,7.89s-24.2-7.79-36.85,3.11a12.32,12.32,0,0,0-3.69,5.72c-2,6.5-5.86,20.77,13.24,26.85a34,34,0,0,0,27.71-5.79l3,5.79h16.26V132.76A21.92,21.92,0,0,0,410.46,119.63Zm-15.77,31.88a3.78,3.78,0,0,1-1,2.59c-7.07,7.45-14.44,5-17.91,3.16a5.24,5.24,0,0,1-2.2-7.08l.14-.24c4.59-8.27,18.46-2.19,20.7-1.15a.55.55,0,0,1,.3.49Z" transform="translate(-7.01 -64.6)"/><path class="cls-2" d="M138.5,135a57.2,57.2,0,0,1-11.26,34.18,176.42,176.42,0,0,0-22.74,4.32l-.94-.08A43,43,0,0,0,91.82,94.75a12,12,0,0,0,.73,7.67,35.51,35.51,0,0,1-3.32,68.12c-16.16-9.33-27.62-10.71-34.18-10.32h0a35.51,35.51,0,0,1,15.57-58.17,12.06,12.06,0,0,0,.89-4.55,11.83,11.83,0,0,0-.32-2.75,43,43,0,0,0-24.43,67.07A30,30,0,0,0,33.88,168,57.5,57.5,0,1,1,138.5,135Z" transform="translate(-7.01 -64.6)"/><path class="cls-1" d="M122.5,82.5c.19-.28-6.16-6.33-16-11a68.57,68.57,0,0,0-15-5c-5.39-1.14-20.22-4.12-37,1-2.34.71-26.27,8.39-39,31-16.63,29.52-8.6,74.58,22,94,35.78,22.71,80.48-3.56,86-11,.38-.51,1.51-2,1-3-1.69-3.15-19.93,2.29-29,5-5,1.5-8.31,2.53-13,2-6.49-.74-12.25-4.16-12-5,.17-.59,3.42-.19,5,0a36.93,36.93,0,0,1,5,1c3.57.9,7.3.93,9,0,.71-.39,3.14-1.71,3-3s-2.83-1.55-11-4a77.38,77.38,0,0,1-8.1-2.75c-3.53-1.51-4.5-2.46-8.9-3.25-3-.54-12.52-2.24-22,2-5.52,2.47-6.81,5.73-10,5-1.38-.31-2.7-1.25-5.5-5.5a49.41,49.41,0,0,1-6.5-12.5,76.65,76.65,0,0,1-3-35c5.89-29.82,31.3-44.08,33-45a76.32,76.32,0,0,1,42-7,70.79,70.79,0,0,1,13,3C116,77.21,122.31,82.77,122.5,82.5Z" transform="translate(-7.01 -64.6)"/></g><g id="Camada_3" data-name="Camada 3"><path class="cls-3" d="M59.5,154a1.5,1.5,0,0,0,1.5,1.5H75a1.5,1.5,0,0,1,1.5,1.5v4a1.5,1.5,0,0,0,1.5,1.5h8a1.5,1.5,0,0,0,1.5-1.5v-4a1.5,1.5,0,0,1,1.5-1.5h3.21a9.66,9.66,0,0,0,5.46-1.59,13.12,13.12,0,0,0-1.17-22.53A7.43,7.43,0,0,0,93,130.5H76.85a1.43,1.43,0,0,1-.67-.15,3.26,3.26,0,0,1,0-5.7,1.43,1.43,0,0,1,.67-.15H93a1.5,1.5,0,0,0,0-3H76.64a4.15,4.15,0,0,0-2.56.87,6.4,6.4,0,0,0-2.58,4.13,6.54,6.54,0,0,0,2,5.62A5,5,0,0,0,77,133.5H91.65a8.09,8.09,0,0,1,4.95,1.64A9.89,9.89,0,0,1,94.77,152a5.65,5.65,0,0,1-2.36.5H86a1.5,1.5,0,0,0-1.5,1.5v4a1.5,1.5,0,0,1-1.5,1.5H81a1.5,1.5,0,0,1-1.5-1.5v-4a1.5,1.5,0,0,0-1.5-1.5H61A1.5,1.5,0,0,0,59.5,154Z" transform="translate(-7.01 -64.6)"/><path class="cls-3" d="M102.5,116a1.5,1.5,0,0,0-1.5-1.5H89a1.5,1.5,0,0,1-1.5-1.5v-4a1.5,1.5,0,0,0-1.5-1.5H78a1.5,1.5,0,0,0-1.5,1.5v4a1.5,1.5,0,0,1-1.5,1.5H71.79a9.66,9.66,0,0,0-5.46,1.59,13.12,13.12,0,0,0,1.17,22.53,7.43,7.43,0,0,0,3.51.88H87.15a1.43,1.43,0,0,1,.67.15,3.26,3.26,0,0,1,0,5.7,1.43,1.43,0,0,1-.67.15H69a1.5,1.5,0,0,0,0,3H87.36a4.15,4.15,0,0,0,2.56-.87,6.4,6.4,0,0,0,2.58-4.13,6.54,6.54,0,0,0-2-5.62A5,5,0,0,0,87,136.5H72.35a8.09,8.09,0,0,1-4.95-1.64A9.89,9.89,0,0,1,69.23,118a5.65,5.65,0,0,1,2.36-.5H78a1.5,1.5,0,0,0,1.5-1.5v-4a1.5,1.5,0,0,1,1.5-1.5h2a1.5,1.5,0,0,1,1.5,1.5v4a1.5,1.5,0,0,0,1.5,1.5h15A1.5,1.5,0,0,0,102.5,116Z" transform="translate(-7.01 -64.6)"/></g></svg>